<?xml version="1.0" encoding="UTF-8"?>
<svg id="Layer_1" xmlns="http://www.w3.org/2000/svg" version="1.1" viewBox="0 0 1199.16 628.69">
  <!-- Generator: Adobe Illustrator 30.1.0, SVG Export Plug-In . SVG Version: 2.1.1 Build 136)  -->
  <g id="logol">
    <path d="M988.21,563.47c-8.52,7.7-20.2,9.48-27.37,16.2l-27.95,26.22c-26.16,24.55-62.6,28.64-96.2,15.04-24.06-9.74-44.52-25.43-63.16-44.78-49.15,21.62-74.72,15.32-124.83,3.2-9.23,4.21-18.73,7.07-29.31,6.64-4.46,9.03-6.3,17.16-13.11,24.87-7.86,8.92-22.55,19.78-35.74,17.54-60.79-10.37-100.17-48.38-159.01-64.48-50.43,24.37-101.87,42.55-157,52.85-51.04,9.54-101.92,6.49-151.07-9.44C48.36,589.48-2.44,548.6.09,485.82c3.62-90.22,15.85-198.89,44-284.4,13.74-41.74,37.36-90.27,72.82-116.88C143.26,36.47,188.07-3.69,246.61,1.64c29.58,2.69,56.88,12.69,81.09,29.34l36.31,24.97c9.96-16.93,20.18-33.46,36.45-43.9,13.93-8.93,29.73-13.49,45.5-11.64,28.28,3.32,53.66,11.5,77.68,26.27,7.05,4.33,14,7.27,20.26,14.66,27.86-16.02,57.81-19.04,89.31-22.53l54.9-6.08c15.42-1.71,31.16-1.55,46.98-.22,26.77,2.25,50.81,14.87,71.68,30.91,11.69-7.03,28.54-13.73,41.73-19.76,17.22-7.88,35.18-13.52,54.3-8.33,22.9,6.22,20.07,17.54,32.83,12.65,33.44-12.82,80.27-31.55,116.4-25.29,21.62,3.74,37.68,18.88,41.86,40.7,4.09,21.33,1.82,43.17-5.24,63.78l-14.68,42.88,40.98,7.51c26.12,4.79,50.72,20.21,66.71,41.82,50.09,67.67-18.91,170.58-62.39,224.44-20.46,25.35-40.58,48.68-63.21,72.17-22.29,23.13-43.74,45.73-67.86,67.53v-.05ZM1177.82,231.73c-4.61-13.58-14.21-24.03-22.98-35.34-11.81-5.63-21.9-13.46-34.37-17.83-24.04-8.42-49.06-10.18-74.62-11.04,10.58-25.55,23.14-48.17,27.23-73.65l5.03-31.32c-1.8-12.74-5.71-29.32-17.72-36.33-32.5-18.98-107.33,13.89-139.99,27.77-2.68-2.99-3.77-6.44-5.52-9.01-13.78-13.68-31.61-14.61-49.2-8.3-21.77,7.8-41.58,18.21-62.25,29.78-24.56-24.92-57.99-39.75-93.14-36.53l-82.61,7.55c-50.3,4.6-46.47,7.68-90.78,28.39l-7.83-11.6c-3.06-4.53-83.49-64.62-130.32-14.92-21.14,22.43-24.8,51.75-35.7,41.82-23.56-21.45-48.74-40.62-78.9-52.21-21.77-8.37-45.55-12.66-67.74-6.86-28.04,7.32-50.36,22.5-67.09,45.51-6.81,9.37-14.76,18.27-19.26,28.17-19.97,43.88-29.71,74.54-40.31,121.49-18.39,81.46-19.24,122.4-26.23,203.42-6,69.51,44.94,110.86,105.87,128.14,51.98,14.74,104.81,14.23,157.53,1.81,43.57-10.26,85.51-24.87,125.39-44.5,10.48-5.16,15.36-4.67,25.93-.51,23.57,9.28,45.51,20.21,68.87,31.36,24.6,11.74,49.64,25.91,77.6,28.83,18.6,1.94,34.04-20.74,38.09-35.57l6.42-23.55c32.84,11.08,65.83,21.02,100.92,21.41,21.35.24,40.09-8.41,59.81-15.61,16.53,17.64,34.76,32.7,56.27,43.46,33.61,16.81,71.57,12.28,98.73-13.86,53.22-51.24,111.85-113.56,152.85-174.71,23.26-34.69,54.08-94.24,40.03-135.64v-.02Z" fill="#030202"/>
    <path d="M1177.82,231.73c14.06,41.4-16.77,100.95-40.03,135.64-41,61.15-99.62,123.47-152.85,174.71-27.15,26.14-65.11,30.67-98.73,13.86-21.51-10.76-39.74-25.82-56.27-43.46-19.72,7.2-38.46,15.85-59.81,15.61-35.09-.39-68.08-10.33-100.92-21.41l-6.42,23.55c-4.04,14.83-19.48,37.51-38.09,35.57-27.96-2.92-53-17.09-77.6-28.83-23.36-11.15-45.3-22.07-68.87-31.36-10.58-4.17-15.46-4.65-25.93.51-39.88,19.63-81.82,34.24-125.39,44.5-52.73,12.42-105.55,12.93-157.53-1.81-60.93-17.28-111.87-58.63-105.87-128.14,6.99-81.02,7.84-121.96,26.23-203.42,10.6-46.95,20.34-77.61,40.31-121.49,4.5-9.9,12.45-18.8,19.26-28.17,16.73-23.01,39.06-38.18,67.09-45.51,22.2-5.8,45.97-1.5,67.74,6.86,30.16,11.59,55.34,30.75,78.9,52.21,10.9,9.92,14.56-19.39,35.7-41.82,46.82-49.7,127.26,10.39,130.32,14.92l7.83,11.6c44.31-20.7,40.48-23.79,90.78-28.39l82.61-7.55c35.16-3.21,68.58,11.61,93.14,36.53,20.67-11.57,40.48-21.97,62.25-29.78,17.59-6.3,35.42-5.38,49.2,8.3,1.75,2.57,2.84,6.02,5.52,9.01,32.66-13.89,107.49-46.76,139.99-27.77,12.01,7.02,15.92,23.59,17.72,36.33l-5.03,31.32c-4.09,25.48-16.65,48.1-27.23,73.65,25.55.87,50.58,2.62,74.62,11.04,12.47,4.37,22.56,12.2,34.37,17.83,8.76,11.31,18.37,21.76,22.98,35.34v.02ZM1118.36,194.4c-26.03-9.61-53.25-11.25-81.03-10.52-4.28.11-8.28-1.26-9.7-3.64-1.75-2.96-2.36-6.82-.74-10.2,14.87-30.97,37.44-81.93,34.82-115.75-.84-10.8-7.75-17.45-18.47-18.5-33.46-3.28-88.93,20.04-120.24,34.01-20.11,8.97-10.64-30.78-44.06-21.23-24.4,6.97-46.62,18.71-68.21,32.15-6,3.73-11.59,3.49-16.28-1.51-23.91-25.45-56.4-36.6-91.15-33.71-25.08,2.08-48.74,7.09-73.83,7.61-34.71.73-67.21,10.74-91.85,35.75-2.23,2.26-7.66.76-9.77-.32-6.88-3.54.53-17.74-12.96-26.96-20.77-14.18-44.38-24.02-69.49-26.95-13.89-1.62-24.73,2.51-33.78,12.63-14.04,15.7-23.42,34.53-31.1,54.44-1.4,3.63-3.82,5.92-7.02,6.41-2.63.4-5.46-.27-7.88-2.76-32.8-33.58-81.68-72.1-131.55-70.07-91.65,3.74-125.52,152.32-137.3,223.87-10.02,60.86-16.61,120.87-17.58,182.82-.39,24.9,14.84,46.9,33.16,61.9,51.99,42.55,136.89,47.97,201.11,34.77,50.17-10.31,96.98-27.68,142.67-50.19,4.14-2.04,8.17-2.71,12.47-1.53,64.68,17.8,100.25,52.8,155.8,64.35,8.72,1.81,16.84-8.51,19.99-14.71,13.36-26.23,6.83-52.79,24.7-45.95,26.19,10.03,52.34,17.25,80.17,21.47,58.44,8.86,76.83-26.37,87.94-14.01,16.74,18.63,34.66,35.38,57.29,45.83,26.92,12.44,56,9.41,77.83-11,31.03-29.03,59.17-59.27,87.49-91.21,38.91-43.87,90.77-109.28,103.53-166.69,8.91-40.09-7.38-66.72-44.98-80.59h0Z" fill="#da2928"/>
    <path d="M1118.36,194.4c37.6,13.88,53.89,40.5,44.98,80.59-12.76,57.4-64.62,122.81-103.53,166.69-28.33,31.94-56.46,62.18-87.49,91.21-21.82,20.42-50.91,23.44-77.83,11-22.63-10.45-40.55-27.21-57.29-45.83-11.11-12.36-29.5,22.87-87.94,14.01-27.84-4.22-53.98-11.44-80.17-21.47-17.87-6.84-11.34,19.72-24.7,45.95-3.15,6.19-11.28,16.52-19.99,14.71-55.54-11.55-91.11-46.56-155.8-64.35-4.3-1.18-8.33-.51-12.47,1.53-45.69,22.51-92.5,39.88-142.67,50.19-64.22,13.2-149.12,7.78-201.11-34.77-18.33-15-33.56-36.99-33.16-61.9.97-61.95,7.56-121.96,17.58-182.82,11.78-71.55,45.65-220.13,137.3-223.87,49.86-2.03,98.74,36.48,131.55,70.07,2.43,2.49,5.25,3.16,7.88,2.76,3.19-.49,5.62-2.78,7.02-6.41,7.68-19.91,17.06-38.75,31.1-54.44,9.06-10.12,19.89-14.25,33.78-12.63,25.11,2.93,48.73,12.77,69.49,26.95,13.49,9.21,6.08,23.41,12.96,26.96,2.11,1.09,7.54,2.58,9.77.32,24.64-25.01,57.14-35.02,91.85-35.75,25.09-.52,48.74-5.53,73.83-7.61,34.75-2.89,67.24,8.26,91.15,33.71,4.7,5,10.29,5.25,16.28,1.51,21.59-13.44,43.81-25.18,68.21-32.15,33.42-9.55,23.95,30.2,44.06,21.23,31.31-13.97,86.78-37.29,120.24-34.01,10.72,1.05,17.64,7.7,18.47,18.5,2.62,33.82-19.95,84.78-34.82,115.75-1.62,3.38-1.01,7.25.74,10.2,1.41,2.38,5.42,3.75,9.7,3.64,27.78-.73,55,.91,81.03,10.52h0ZM844.8,205.75l1.32,48.78c1.98,73.25,6.31,145.15,14.54,217.83,1.22,10.79,4.2,20.53,10.04,28.88,8.89,12.7,23.33,17.08,38.05,12.78,34.23-10.01,66.98-48.15,87.24-76.75,32.01-45.16,70.98-120.54,61.32-176.05-5.11-29.41-27.9-44.96-57.18-43.07-24.7,1.59-45.78,10.75-71.89,21.04,23.41-35.32,50.25-67.4,64.98-108.13,1.36-5.9,3.5-13.06-.75-18.26-26.92-32.89-111.83,39.68-133.57,58.94l-2.06-45.57c-.17-3.82-2.35-5.67-5.08-7.07-2.23-1.15-5.67,2.97-7.61,2.38-5.29-1.61-9.6-2.74-15.35-1.97-24.74,3.3-38.22-14.87-47.88-8.2-5.66,3.91,3.12,45.98.84,60.04-21.9-41.49-56.12-72.43-109.98-70.54-24.34.85-44.72,6.31-64.54,16.79-8.74-2.12-16.59-6.4-26.48-1.98-45.93,20.53-86.62,41.61-124.34,79.23,1.44-16.54,24.62-65.68,19.33-73.95-2.62-4.1-15.51,2.84-44.95-19.21-2.85-2.13-5.82-2.67-9.01-1.45-2.19.84-3.86,4.05-4.1,7.55l-6.37,90.99-16.14-36.44c-6.46-14.58-16.3-26.73-28.86-36.69-36.9-29.27-77.97-.34-103.95,28.8s-46.76,58.65-63.29,92.91c-26.61,55.14-24.12,118.73.94,173.73,3.43,7.52,6.5,12.82,10.85,19.42,24.24,36.74,59.88,70.28,107.17,67.51,60.71-3.56,112.69-38.13,139.34-93.5,28.6,32.49,68.07,53.3,105.17,73.4,14.38,7.79,27.61,15.73,39.18,27.5,2.17,2.21,6.19,2.44,8.49,1.58,1.72-.64,4.46-2.61,4.83-5.51l15.34-119.73c1.67-4.98,6.48-9.3,9.87-13.88,19.11,13.86,32.91,30.54,48.68,46.91,26.67,27.68,64.09,39.98,101.43,30.98,17.28-4.16,29.52-14.97,37.35-30.58,22.55-44.96-5.74-91.78-32.1-129.46l-58.62-83.81-42.63-53.97c-10.3-13.04-18.63-26.4-24.34-42.38,60.73-4.07,92.83,39.76,110.6,90.94,3.35,9.65,10.64,26.98,21.76,24.52,2.52-.56,4.4-3.16,5.43-6.54,9.93-32.3,21.03-63.38,35.43-93.25l.46,54.07c-3.89,5.74-15.75,12.07-10.4,19.25,2.36,3.16,6.6,2.87,11.51,1.2h-.02Z" fill="#fefcfb"/>
    <path d="M844.8,205.75c-4.92,1.67-9.15,1.96-11.51-1.2-5.35-7.18,6.5-13.5,10.4-19.25l-.46-54.07c-14.4,29.87-25.5,60.94-35.43,93.25-1.04,3.37-2.91,5.98-5.43,6.54-11.12,2.46-18.41-14.86-21.76-24.52-17.77-51.18-49.87-95.01-110.6-90.94,5.71,15.97,14.04,29.34,24.34,42.38l42.63,53.97,58.62,83.81c26.36,37.68,54.65,84.51,32.1,129.46-7.83,15.61-20.07,26.42-37.35,30.58-37.33,9-74.76-3.3-101.43-30.98-15.77-16.37-29.57-33.05-48.68-46.91-3.38,4.58-8.19,8.9-9.87,13.88l-15.34,119.73c-.37,2.91-3.11,4.87-4.83,5.51-2.3.86-6.31.63-8.49-1.58-11.58-11.76-24.81-19.71-39.18-27.5-37.09-20.1-76.57-40.91-105.17-73.4-26.65,55.37-78.63,89.94-139.34,93.5-47.28,2.77-82.92-30.77-107.17-67.51-4.35-6.6-7.43-11.9-10.85-19.42-25.06-55-27.55-118.59-.94-173.73,16.53-34.26,38.19-64.75,63.29-92.91s67.05-58.08,103.95-28.8c12.56,9.97,22.41,22.12,28.86,36.69l16.14,36.44,6.37-90.99c.25-3.5,1.91-6.71,4.1-7.55,3.19-1.22,6.16-.68,9.01,1.45,29.44,22.05,42.33,15.11,44.95,19.21,5.29,8.27-17.88,57.41-19.33,73.95,37.72-37.62,78.42-58.7,124.34-79.23,9.89-4.42,17.74-.13,26.48,1.98,19.81-10.48,40.19-15.94,64.54-16.79,53.86-1.89,88.08,29.05,109.98,70.54,2.28-14.06-6.5-56.13-.84-60.04,9.66-6.68,23.14,11.5,47.88,8.2,5.75-.77,10.06.36,15.35,1.97,1.94.59,5.38-3.52,7.61-2.38,2.73,1.4,4.9,3.25,5.08,7.07l2.06,45.57c21.74-19.27,106.65-91.83,133.57-58.94,4.25,5.2,2.11,12.36.75,18.26-14.72,40.73-41.57,72.81-64.98,108.13,26.11-10.28,47.19-19.44,71.89-21.04,29.27-1.89,52.06,13.66,57.18,43.07,9.65,55.51-29.32,130.89-61.32,176.05-20.27,28.6-53.01,66.74-87.24,76.75-14.73,4.3-29.17-.07-38.05-12.78-5.84-8.35-8.82-18.09-10.04-28.88-8.22-72.68-12.56-144.59-14.54-217.83l-1.32-48.78h.02ZM980.83,121.1c-17.44-9.14-56.25,16.95-70.58,27.55l5.45,80.49c21.83-26.51,56.5-75.19,65.12-108.04h.01ZM481.33,191.18c-23.18,20.08-17.62,33.39-33.15,26.04l-19.4,59.11c-1.23,3.75-4.33,5.72-7.49,5.66-2.78-.05-6.41-2.28-7.07-6.17-5.32-31.37-12.02-61.87-24.53-91.23-9.25-21.71-27.72-56.24-54.77-56.28l-.2,363.02c51.67-7.87,93.29-42.93,113.15-91.19-26.81-46.69,12.31-83.72,47.42-108.26,16.42-11.53,32.9-20.59,51.29-29.55.37-39.57.22-72.02-2.89-112.55-22.95,11.61-43.18,24.78-62.38,41.41h.02ZM699.43,415.03c21.43,22.24,51.15,33.52,82.05,28.22l-26.9-50.74c-20.43-38.54-41.5-75.82-70.12-108.94l-50.66-58.6c2.5,30.49,3.05,57.93,1.61,87.14l-2.52,51.19c8.99-1.37,15.74,2.21,22.16,7.52,16.2,13.38,29.26,28.51,44.38,44.21ZM1037.73,322.66c5.57-20.67,8.51-38.87,5.57-58.75-2.15-9.04-5.6-17.81-12.74-23.83-26.53-21.64-86.01,7.02-112.1,21.45,6.58,69.35,17.8,136.35,36.08,203.95,38.82-41.73,66.09-89.77,83.19-142.82h0ZM464.58,399.6c14.64,21.94,45.27,42.02,67.47,54.64,7.63-58.9,13.26-115.91,14.68-175.77-31.5,15.35-75.71,42.57-90.09,74.47-3.96,9.46-4.66,18.61-1.85,27.58l3.81-10.64c1.4-3.9,4.96-5.46,8.13-4.71,11.96,2.81-1.23,26.16-2.15,34.43h0Z" fill="#da2928"/>
    <path d="M481.33,191.18c19.19-16.63,39.42-29.79,62.38-41.41,3.11,40.53,3.26,72.98,2.89,112.55-18.39,8.96-34.87,18.02-51.29,29.55-35.12,24.54-74.24,61.58-47.42,108.26-19.86,48.26-61.48,83.32-113.15,91.19l.2-363.02c27.05.04,45.51,34.57,54.77,56.28,12.51,29.36,19.21,59.86,24.53,91.23.66,3.89,4.29,6.12,7.07,6.17,3.16.05,6.26-1.92,7.49-5.66l19.4-59.11c15.53,7.35,9.97-5.96,33.15-26.04h-.02Z" fill="#fefcfb"/>
    <path d="M1037.73,322.66c-17.11,53.04-44.38,101.08-83.19,142.82-18.28-67.6-29.5-134.61-36.08-203.95,26.09-14.43,85.58-43.09,112.1-21.45,7.14,6.03,10.59,14.79,12.74,23.83,2.94,19.88,0,38.08-5.57,58.75h0Z" fill="#fefcfb"/>
    <path d="M699.43,415.03c-15.12-15.69-28.18-30.82-44.38-44.21-6.42-5.31-13.17-8.89-22.16-7.52l2.52-51.19c1.44-29.21.89-56.65-1.61-87.14l50.66,58.6c28.63,33.12,49.69,70.4,70.12,108.94l26.9,50.74c-30.9,5.3-60.62-5.98-82.05-28.22h0Z" fill="#fefcfb"/>
    <path d="M464.58,399.6c.92-8.26,14.12-31.61,2.15-34.43-3.18-.75-6.74.81-8.13,4.71l-3.81,10.64c-2.81-8.97-2.11-18.12,1.85-27.58,14.39-31.9,58.59-59.12,90.09-74.47-1.43,59.86-7.05,116.87-14.68,175.77-22.2-12.61-52.83-32.7-67.47-54.64Z" fill="#fefcfb"/>
    <path d="M980.83,121.1c-8.63,32.85-43.29,81.53-65.12,108.04l-5.45-80.49c14.33-10.6,53.14-36.69,70.58-27.55h-.01Z" fill="#fefcfb"/>
  </g>
</svg>